<?xml version="1.0" standalone="no"?>
<!DOCTYPE svg PUBLIC "-//W3C//DTD SVG 20010904//EN"
 "http://www.w3.org/TR/2001/REC-SVG-20010904/DTD/svg10.dtd">
<svg version="1.0" xmlns="http://www.w3.org/2000/svg"
 width="749.000000pt" height="333.000000pt" viewBox="0 0 749.000000 333.000000"
 preserveAspectRatio="xMidYMid meet">

<g transform="translate(0.000000,333.000000) scale(0.100000,-0.100000)"
fill="#000000" stroke="none">
<path d="M2838 2806 c-84 -23 -158 -96 -184 -182 -9 -29 -14 -92 -14 -166 0
-283 -50 -494 -144 -605 -23 -27 -102 -73 -149 -87 -15 -5 -18 -15 -15 -67 l3
-61 52 -20 c166 -61 253 -291 253 -669 0 -156 15 -213 73 -276 22 -24 59 -54
82 -66 l40 -22 884 -3 c991 -3 950 -5 1033 67 78 70 90 111 99 356 6 174 12
227 32 306 45 172 107 262 212 304 l60 24 0 62 0 62 -45 13 c-84 25 -155 104
-201 225 -37 96 -51 191 -58 400 -7 197 -8 208 -35 262 -33 68 -96 123 -162
143 -65 19 -1743 20 -1816 0z m1149 -540 c152 -70 218 -221 163 -370 -23 -60
-92 -132 -148 -155 l-33 -14 61 -20 c129 -42 206 -161 198 -302 -8 -126 -68
-219 -178 -275 -85 -43 -148 -50 -452 -50 l-278 0 0 611 0 611 303 -4 302 -3
62 -29z"/>
<path d="M3520 1960 l0 -183 148 6 c189 7 246 29 288 109 22 43 18 129 -8 168
-43 63 -83 75 -265 79 l-163 3 0 -182z"/>
<path d="M3520 1435 l0 -197 178 3 c167 4 181 6 227 30 81 41 115 110 101 204
-8 53 -43 97 -100 128 -37 20 -58 22 -223 25 l-183 4 0 -197z"/>
</g>
</svg>
