<?xml version="1.0" standalone="no"?><svg xmlns="http://www.w3.org/2000/svg" viewBox="0 0 1440 320"><path fill="#0D1117" fill-opacity="1" d="M0,0L24,16C48,32,96,64,144,80C192,96,240,96,288,128C336,160,384,224,432,250.7C480,277,528,267,576,266.7C624,267,672,277,720,261.3C768,245,816,203,864,192C912,181,960,203,1008,197.3C1056,192,1104,160,1152,133.3C1200,107,1248,85,1296,69.3C1344,53,1392,43,1416,37.3L1440,32L1440,320L1416,320C1392,320,1344,320,1296,320C1248,320,1200,320,1152,320C1104,320,1056,320,1008,320C960,320,912,320,864,320C816,320,768,320,720,320C672,320,624,320,576,320C528,320,480,320,432,320C384,320,336,320,288,320C240,320,192,320,144,320C96,320,48,320,24,320L0,320Z"></path></svg>