<?xml version="1.0" standalone="no"?><svg xmlns="http://www.w3.org/2000/svg" viewBox="0 0 1440 320"><path fill="#0D1117" fill-opacity="1" d="M0,192L24,202.7C48,213,96,235,144,202.7C192,171,240,85,288,53.3C336,21,384,43,432,58.7C480,75,528,85,576,122.7C624,160,672,224,720,208C768,192,816,96,864,64C912,32,960,64,1008,80C1056,96,1104,96,1152,112C1200,128,1248,160,1296,170.7C1344,181,1392,171,1416,165.3L1440,160L1440,0L1416,0C1392,0,1344,0,1296,0C1248,0,1200,0,1152,0C1104,0,1056,0,1008,0C960,0,912,0,864,0C816,0,768,0,720,0C672,0,624,0,576,0C528,0,480,0,432,0C384,0,336,0,288,0C240,0,192,0,144,0C96,0,48,0,24,0L0,0Z"></path></svg>